<?xml version="1.0" encoding="UTF-8"?>
<svg id="Layer_1" xmlns="http://www.w3.org/2000/svg" version="1.1" viewBox="0 0 360 360">
  <!-- Generator: Adobe Illustrator 29.4.0, SVG Export Plug-In . SVG Version: 2.1.0 Build 152)  -->
  <defs>
    <style>
      .st0 {
        fill: #fff;
      }
    </style>
  </defs>
  <path class="st0" d="M174.1,229.96c-5.29,0-10.41-.04-15.54,0-10.76.1-21.53.23-32.29.38-3.67.05-7.33.14-10.9-.98-6.13-1.94-10.14-7.39-9.87-13.61.15-3.38,1.78-6.15,4.1-8.44,2.45-2.42,5.13-4.62,7.72-6.9,7-6.19,13.99-12.39,20.99-18.58,11.5-10.17,23-20.33,34.49-30.49,6.05-5.35,12.07-10.73,18.14-16.05,3.06-2.68,6.31-5.16,9.3-7.92,3.03-2.79,5.81-5.88,7.41-9.74,1.88-4.53,2.3-9.31,1.38-14.13-2.14-11.37-8.67-19.28-19.46-23.26-16.09-5.93-33.99,4.18-37.86,20.91-2.89,12.46,3.03,26.5,15.38,33,2.57,1.35,5.26,2.28,8.13,2.67.13.02.26.08.58.18-11.38,9.83-22.65,19.56-33.94,29.3-5.67-3.58-10.72-7.81-15.11-12.82-8.72-9.94-14.12-21.5-15.91-34.55-3.16-23,3.15-43.13,19.36-59.88,9.11-9.41,20.21-15.57,32.95-18.67,12.29-2.99,24.47-2.35,36.64.98,5.35,1.46,10.35,3.55,15.08,6.36,1.99,1.18,3.87,2.55,5.76,3.88.53.38.92.39,1.47.07,8.74-5.1,18.51-4.26,25.8,2.75,6.16,5.93,8.01,13.3,5.59,21.59-1.22,4.16-3.61,7.55-6.98,10.29-.35.29-.58,1.02-.51,1.5.55,3.88,1.26,7.74,1.79,11.62.85,6.29,1.01,12.61.26,18.93-.75,6.32-2.35,12.41-5.03,18.2-3.78,8.18-9.11,15.2-15.95,21.04-13.08,11.17-26.2,22.29-39.31,33.43-1.08.92-2.17,1.82-3.55,2.96.71,0,1.11,0,1.5,0,10.54-.04,21.09-.15,31.63-.11,4.43.02,8.88.13,13.27.6,6.23.67,11.41,3.51,15.18,8.63,4.05,5.5,3.76,12.79-.68,18.4-3.51,4.43-7.85,7.97-12.31,11.36-9.54,7.27-19.12,14.5-28.7,21.72-10.54,7.94-21.11,15.84-31.65,23.78-14.78,11.13-29.55,22.29-44.33,33.43-4.35,3.28-8.72,6.55-13.24,9.7,19.73-30.51,39.47-61.02,59.22-91.56Z"/>
</svg>